<mxfile host="app.diagrams.net" modified="2023-08-06T16:47:53.579Z" agent="Mozilla/5.0 (Windows NT 10.0; Win64; x64) AppleWebKit/537.36 (KHTML, like Gecko) Chrome/115.0.0.0 Safari/537.36 Edg/115.0.1901.188" etag="AEDYlOyNdDUqgT3pHWK2" version="21.6.1" type="device">
  <diagram name="第 1 页" id="3BqqiIQcoAzbKIjiIVuP">
    <mxGraphModel dx="972" dy="557" grid="1" gridSize="10" guides="1" tooltips="1" connect="1" arrows="1" fold="1" page="1" pageScale="1" pageWidth="827" pageHeight="1169" math="0" shadow="0">
      <root>
        <mxCell id="0" />
        <mxCell id="1" parent="0" />
        <mxCell id="lyIlwFBt6USkS9-t7uv8-10" style="edgeStyle=orthogonalEdgeStyle;rounded=0;orthogonalLoop=1;jettySize=auto;html=1;exitX=1;exitY=0.5;exitDx=0;exitDy=0;entryX=0;entryY=0.5;entryDx=0;entryDy=0;" edge="1" parent="1" source="lyIlwFBt6USkS9-t7uv8-1" target="lyIlwFBt6USkS9-t7uv8-6">
          <mxGeometry relative="1" as="geometry" />
        </mxCell>
        <mxCell id="lyIlwFBt6USkS9-t7uv8-11" style="edgeStyle=orthogonalEdgeStyle;rounded=0;orthogonalLoop=1;jettySize=auto;html=1;exitX=1;exitY=0.5;exitDx=0;exitDy=0;entryX=0;entryY=0.5;entryDx=0;entryDy=0;" edge="1" parent="1" source="lyIlwFBt6USkS9-t7uv8-1" target="lyIlwFBt6USkS9-t7uv8-8">
          <mxGeometry relative="1" as="geometry" />
        </mxCell>
        <mxCell id="lyIlwFBt6USkS9-t7uv8-1" value="" style="rounded=1;whiteSpace=wrap;html=1;arcSize=50;" vertex="1" parent="1">
          <mxGeometry x="240" y="320" width="40" height="40" as="geometry" />
        </mxCell>
        <mxCell id="lyIlwFBt6USkS9-t7uv8-3" value="" style="rounded=1;whiteSpace=wrap;html=1;arcSize=50;" vertex="1" parent="1">
          <mxGeometry x="440" y="40" width="40" height="40" as="geometry" />
        </mxCell>
        <mxCell id="lyIlwFBt6USkS9-t7uv8-5" value="" style="rounded=1;whiteSpace=wrap;html=1;arcSize=50;fillColor=#f8cecc;strokeColor=#b85450;gradientColor=#F19C99;" vertex="1" parent="1">
          <mxGeometry x="360" y="80" width="40" height="40" as="geometry" />
        </mxCell>
        <mxCell id="lyIlwFBt6USkS9-t7uv8-13" value="" style="edgeStyle=orthogonalEdgeStyle;rounded=0;orthogonalLoop=1;jettySize=auto;html=1;" edge="1" parent="1" source="lyIlwFBt6USkS9-t7uv8-6" target="lyIlwFBt6USkS9-t7uv8-7">
          <mxGeometry relative="1" as="geometry" />
        </mxCell>
        <mxCell id="lyIlwFBt6USkS9-t7uv8-6" value="" style="rounded=1;whiteSpace=wrap;html=1;arcSize=50;" vertex="1" parent="1">
          <mxGeometry x="320" y="320" width="40" height="40" as="geometry" />
        </mxCell>
        <mxCell id="lyIlwFBt6USkS9-t7uv8-27" value="" style="edgeStyle=orthogonalEdgeStyle;rounded=0;orthogonalLoop=1;jettySize=auto;html=1;" edge="1" parent="1" source="lyIlwFBt6USkS9-t7uv8-7" target="lyIlwFBt6USkS9-t7uv8-20">
          <mxGeometry relative="1" as="geometry" />
        </mxCell>
        <mxCell id="lyIlwFBt6USkS9-t7uv8-7" value="" style="rounded=1;whiteSpace=wrap;html=1;arcSize=50;" vertex="1" parent="1">
          <mxGeometry x="400" y="320" width="40" height="40" as="geometry" />
        </mxCell>
        <mxCell id="lyIlwFBt6USkS9-t7uv8-14" value="" style="edgeStyle=orthogonalEdgeStyle;rounded=0;orthogonalLoop=1;jettySize=auto;html=1;" edge="1" parent="1" source="lyIlwFBt6USkS9-t7uv8-8" target="lyIlwFBt6USkS9-t7uv8-9">
          <mxGeometry relative="1" as="geometry" />
        </mxCell>
        <mxCell id="lyIlwFBt6USkS9-t7uv8-8" value="" style="rounded=1;whiteSpace=wrap;html=1;arcSize=50;" vertex="1" parent="1">
          <mxGeometry x="320" y="400" width="40" height="40" as="geometry" />
        </mxCell>
        <mxCell id="lyIlwFBt6USkS9-t7uv8-29" value="" style="edgeStyle=orthogonalEdgeStyle;rounded=0;orthogonalLoop=1;jettySize=auto;html=1;" edge="1" parent="1" source="lyIlwFBt6USkS9-t7uv8-9" target="lyIlwFBt6USkS9-t7uv8-21">
          <mxGeometry relative="1" as="geometry" />
        </mxCell>
        <mxCell id="lyIlwFBt6USkS9-t7uv8-9" value="" style="rounded=1;whiteSpace=wrap;html=1;arcSize=50;" vertex="1" parent="1">
          <mxGeometry x="400" y="400" width="40" height="40" as="geometry" />
        </mxCell>
        <mxCell id="lyIlwFBt6USkS9-t7uv8-15" value="+属性伤害&lt;br&gt;+属性抗性" style="text;html=1;strokeColor=none;fillColor=none;align=center;verticalAlign=middle;whiteSpace=wrap;rounded=0;" vertex="1" parent="1">
          <mxGeometry x="62.5" y="160" width="70" height="30" as="geometry" />
        </mxCell>
        <mxCell id="lyIlwFBt6USkS9-t7uv8-17" value="心法&lt;br&gt;基本属性" style="text;html=1;strokeColor=none;fillColor=none;align=center;verticalAlign=middle;whiteSpace=wrap;rounded=0;" vertex="1" parent="1">
          <mxGeometry x="422.5" y="110" width="70" height="30" as="geometry" />
        </mxCell>
        <mxCell id="lyIlwFBt6USkS9-t7uv8-18" value="- 技能cd" style="text;html=1;strokeColor=none;fillColor=none;align=center;verticalAlign=middle;whiteSpace=wrap;rounded=0;" vertex="1" parent="1">
          <mxGeometry x="45" y="90" width="95" height="30" as="geometry" />
        </mxCell>
        <mxCell id="lyIlwFBt6USkS9-t7uv8-19" value="" style="rounded=1;whiteSpace=wrap;html=1;arcSize=50;" vertex="1" parent="1">
          <mxGeometry x="520" y="80" width="40" height="40" as="geometry" />
        </mxCell>
        <mxCell id="lyIlwFBt6USkS9-t7uv8-28" value="" style="edgeStyle=orthogonalEdgeStyle;rounded=0;orthogonalLoop=1;jettySize=auto;html=1;" edge="1" parent="1" source="lyIlwFBt6USkS9-t7uv8-20" target="lyIlwFBt6USkS9-t7uv8-23">
          <mxGeometry relative="1" as="geometry" />
        </mxCell>
        <mxCell id="lyIlwFBt6USkS9-t7uv8-20" value="" style="rounded=1;whiteSpace=wrap;html=1;arcSize=50;" vertex="1" parent="1">
          <mxGeometry x="480" y="320" width="40" height="40" as="geometry" />
        </mxCell>
        <mxCell id="lyIlwFBt6USkS9-t7uv8-30" value="" style="edgeStyle=orthogonalEdgeStyle;rounded=0;orthogonalLoop=1;jettySize=auto;html=1;" edge="1" parent="1" source="lyIlwFBt6USkS9-t7uv8-21" target="lyIlwFBt6USkS9-t7uv8-24">
          <mxGeometry relative="1" as="geometry" />
        </mxCell>
        <mxCell id="lyIlwFBt6USkS9-t7uv8-21" value="" style="rounded=1;whiteSpace=wrap;html=1;arcSize=50;" vertex="1" parent="1">
          <mxGeometry x="480" y="400" width="40" height="40" as="geometry" />
        </mxCell>
        <mxCell id="lyIlwFBt6USkS9-t7uv8-22" value="" style="rounded=1;whiteSpace=wrap;html=1;arcSize=50;" vertex="1" parent="1">
          <mxGeometry x="520" y="160" width="40" height="40" as="geometry" />
        </mxCell>
        <mxCell id="lyIlwFBt6USkS9-t7uv8-23" value="" style="rounded=1;whiteSpace=wrap;html=1;arcSize=50;" vertex="1" parent="1">
          <mxGeometry x="560" y="320" width="40" height="40" as="geometry" />
        </mxCell>
        <mxCell id="lyIlwFBt6USkS9-t7uv8-24" value="" style="rounded=1;whiteSpace=wrap;html=1;arcSize=50;" vertex="1" parent="1">
          <mxGeometry x="560" y="400" width="40" height="40" as="geometry" />
        </mxCell>
        <mxCell id="lyIlwFBt6USkS9-t7uv8-32" value="- 技能蓝耗" style="text;html=1;strokeColor=none;fillColor=none;align=center;verticalAlign=middle;whiteSpace=wrap;rounded=0;" vertex="1" parent="1">
          <mxGeometry x="410" y="10" width="95" height="30" as="geometry" />
        </mxCell>
        <mxCell id="lyIlwFBt6USkS9-t7uv8-34" value="+属性伤害" style="text;html=1;strokeColor=none;fillColor=none;align=center;verticalAlign=middle;whiteSpace=wrap;rounded=0;" vertex="1" parent="1">
          <mxGeometry x="50" y="120" width="95" height="30" as="geometry" />
        </mxCell>
        <mxCell id="lyIlwFBt6USkS9-t7uv8-36" value="" style="rounded=1;whiteSpace=wrap;html=1;arcSize=50;" vertex="1" parent="1">
          <mxGeometry x="440" y="200" width="40" height="40" as="geometry" />
        </mxCell>
        <mxCell id="lyIlwFBt6USkS9-t7uv8-37" value="" style="rounded=1;whiteSpace=wrap;html=1;arcSize=50;fillColor=#dae8fc;strokeColor=#6c8ebf;gradientColor=#A9C4EB;" vertex="1" parent="1">
          <mxGeometry x="360" y="160" width="40" height="40" as="geometry" />
        </mxCell>
        <mxCell id="lyIlwFBt6USkS9-t7uv8-38" value="- 技能冷却" style="text;html=1;strokeColor=none;fillColor=none;align=center;verticalAlign=middle;whiteSpace=wrap;rounded=0;" vertex="1" parent="1">
          <mxGeometry x="492.5" y="50" width="95" height="30" as="geometry" />
        </mxCell>
        <mxCell id="lyIlwFBt6USkS9-t7uv8-39" value="+ 伤害" style="text;html=1;strokeColor=none;fillColor=none;align=center;verticalAlign=middle;whiteSpace=wrap;rounded=0;" vertex="1" parent="1">
          <mxGeometry x="330" y="50" width="95" height="30" as="geometry" />
        </mxCell>
        <mxCell id="lyIlwFBt6USkS9-t7uv8-40" value="+ 暴击率" style="text;html=1;strokeColor=none;fillColor=none;align=center;verticalAlign=middle;whiteSpace=wrap;rounded=0;" vertex="1" parent="1">
          <mxGeometry x="330" y="130" width="95" height="30" as="geometry" />
        </mxCell>
        <mxCell id="lyIlwFBt6USkS9-t7uv8-41" value="+ 暴击伤害" style="text;html=1;strokeColor=none;fillColor=none;align=center;verticalAlign=middle;whiteSpace=wrap;rounded=0;" vertex="1" parent="1">
          <mxGeometry x="410" y="170" width="95" height="30" as="geometry" />
        </mxCell>
        <mxCell id="lyIlwFBt6USkS9-t7uv8-42" value="+ 命中率" style="text;html=1;strokeColor=none;fillColor=none;align=center;verticalAlign=middle;whiteSpace=wrap;rounded=0;" vertex="1" parent="1">
          <mxGeometry x="492.5" y="130" width="95" height="30" as="geometry" />
        </mxCell>
      </root>
    </mxGraphModel>
  </diagram>
</mxfile>
